<svg xmlns="http://www.w3.org/2000/svg" version="1.1" xmlns:xlink="http://www.w3.org/1999/xlink" xmlns:svgjs="http://svgjs.dev/svgjs" width="1000" height="1000" viewBox="0 0 1000 1000"><rect width="1000" height="1000" fill="#5e1914"></rect><g transform="matrix(0.7,0,0,0.7,149.57575757575756,282.1265587044535)"><svg viewBox="0 0 396 247" data-background-color="#5e1914" preserveAspectRatio="xMidYMid meet" height="623" width="1000" xmlns="http://www.w3.org/2000/svg" xmlns:xlink="http://www.w3.org/1999/xlink"><g id="tight-bounds" transform="matrix(1,0,0,1,0.2400000000000091,-0.09999999999999432)"><svg viewBox="0 0 395.52 247.2" height="247.2" width="395.52"><g><svg></svg></g><g><svg viewBox="0 0 395.52 247.2" height="247.2" width="395.52"><g transform="matrix(1,0,0,1,134.93784204545454,47.215199999999996)"><svg viewBox="0 0 125.64431590909089 152.7696" height="152.7696" width="125.64431590909089"><g><svg viewBox="0 0 125.64431590909089 152.7696" height="152.7696" width="125.64431590909089"><g><svg viewBox="0 0 125.64431590909092 152.76960000000003" height="152.7696" width="125.64431590909089"><g><svg viewBox="0 0 125.64431590909092 152.76960000000003" height="152.76960000000003" width="125.64431590909092"><g id="textblocktransform"><svg viewBox="0 0 125.64431590909092 152.76960000000003" height="152.76960000000003" width="125.64431590909092" id="textblock"><g><svg viewBox="0 0 125.64431590909092 152.76960000000003" height="152.76960000000003" width="125.64431590909092"><g transform="matrix(1,0,0,1,0,0)"><svg width="125.64431590909092" viewBox="1.350000023841858 -35.20000076293945 28.94999885559082 35.20000076293945" height="152.76960000000003" data-palette-color="#ed1703"><path d="M1.9 0Q1.35 0 1.35-0.55L1.35-0.55Q1.35-1.1 1.73-1.98 2.1-2.85 2.9-3.55L2.9-3.55Q4.15-4.55 4.48-5.05 4.8-5.55 5.15-7.25L5.15-7.25 8.3-25.15Q8.45-26.1 9.3-27.1 10.15-28.1 11.4-28.75 12.65-29.4 13.85-29.4L13.85-29.4Q14.25-29.4 14.4-29.28 14.55-29.15 14.55-28.9L14.55-28.9Q14.55-28.6 14.15-27.6 13.75-26.6 13.4-24.8L13.4-24.8 10.1-6.45Q9.95-5.3 9.3-4.4L9.3-4.4 9.3-4.35Q10.6-4.1 12.85-4.1L12.85-4.1Q16.45-4.1 19.05-6.08 21.65-8.05 23-11.58 24.35-15.1 24.35-19.7L24.35-19.7Q24.35-25.85 21.88-28.73 19.4-31.6 14.2-31.6L14.2-31.6Q10.95-31.6 8.5-30.53 6.05-29.45 4.15-27.2L4.15-27.2Q3.55-26.55 3.25-26.3 2.95-26.05 2.5-26.05L2.5-26.05Q1.9-26.05 1.9-26.7L1.9-26.7Q1.9-27.05 2.15-27.8L2.15-27.8Q3.65-31.2 7.28-33.2 10.9-35.2 16-35.2L16-35.2Q22.75-35.2 26.53-31.35 30.3-27.5 30.3-20.1L30.3-20.1Q30.3-14.5 28.13-9.93 25.95-5.35 21.9-2.68 17.85 0 12.5 0L12.5 0Q10.8 0 8.3-0.4L8.3-0.4Q6.2-0.7 5.4-0.7L5.4-0.7Q4.15-0.7 3.18-0.35 2.2 0 1.9 0L1.9 0Z" opacity="1" transform="matrix(1,0,0,1,0,0)" fill="#ed1703" class="wordmark-text-0" data-fill-palette-color="primary" id="text-0"></path></svg></g></svg></g></svg></g></svg></g></svg></g></svg></g></svg></g><g><path d="M186.422 0c30.402 0 58.24 10.976 79.768 29.183l-11.147 0c-19.26-14.022-42.974-22.294-68.621-22.295-25.647 0-49.361 8.272-68.621 22.295l-11.147 0c21.528-18.206 49.366-29.183 79.768-29.183zM186.422 247.2c-30.402 0-58.24-10.976-79.768-29.183h11.147c19.26 14.022 42.974 22.294 68.621 22.295 25.647 0 49.361-8.272 68.621-22.295h11.147c-21.528 18.206-49.366 29.183-79.768 29.183z" fill="#ed1703" stroke="transparent" data-fill-palette-color="tertiary"></path></g></svg></g><defs></defs></svg><rect width="395.52" height="247.2" fill="none" stroke="none" visibility="hidden"></rect></g></svg></g></svg>